<svg width="90" height="90" viewBox="0 0 90 90" fill="none" xmlns="http://www.w3.org/2000/svg">
<g id="&#240;&#159;&#166;&#134; icon &#34;instagram 1&#34;">
<path id="Vector" d="M70.7143 0H19.2857C8.63451 0 0 8.63451 0 19.2857V70.7143C0 81.3655 8.63451 90 19.2857 90H70.7143C81.3655 90 90 81.3655 90 70.7143V19.2857C90 8.63451 81.3655 0 70.7143 0Z" fill="url(#paint0_radial_37_13)"/>
<path id="Vector_2" d="M70.7143 0H19.2857C8.63451 0 0 8.63451 0 19.2857V70.7143C0 81.3655 8.63451 90 19.2857 90H70.7143C81.3655 90 90 81.3655 90 70.7143V19.2857C90 8.63451 81.3655 0 70.7143 0Z" fill="url(#paint1_radial_37_13)"/>
<path id="Vector_3" d="M70.7143 0H19.2857C8.63451 0 0 8.63451 0 19.2857V70.7143C0 81.3655 8.63451 90 19.2857 90H70.7143C81.3655 90 90 81.3655 90 70.7143V19.2857C90 8.63451 81.3655 0 70.7143 0Z" fill="url(#paint2_radial_37_13)"/>
<g id="Group">
<path id="Vector_4" d="M67.4998 27.3214C67.4998 29.9841 65.3411 32.1429 62.6784 32.1429C60.0156 32.1429 57.8569 29.9841 57.8569 27.3214C57.8569 24.6586 60.0156 22.5 62.6784 22.5C65.3411 22.5 67.4998 24.6586 67.4998 27.3214Z" fill="white"/>
<path id="Vector_5" fill-rule="evenodd" clip-rule="evenodd" d="M44.9999 61.0713C53.8758 61.0713 61.0713 53.8758 61.0713 44.9999C61.0713 36.124 53.8758 28.9285 44.9999 28.9285C36.124 28.9285 28.9285 36.124 28.9285 44.9999C28.9285 53.8758 36.124 61.0713 44.9999 61.0713ZM44.9999 54.6428C50.3256 54.6428 54.6428 50.3256 54.6428 44.9999C54.6428 39.6741 50.3256 35.357 44.9999 35.357C39.6741 35.357 35.357 39.6741 35.357 44.9999C35.357 50.3256 39.6741 54.6428 44.9999 54.6428Z" fill="white"/>
<path id="Vector_6" fill-rule="evenodd" clip-rule="evenodd" d="M12.8574 43.7146C12.8574 32.9136 12.8574 27.513 14.9594 23.3876C16.8084 19.7588 19.7588 16.8084 23.3876 14.9594C27.513 12.8574 32.9136 12.8574 43.7146 12.8574H46.286C57.087 12.8574 62.4876 12.8574 66.6128 14.9594C70.2417 16.8084 73.1921 19.7588 75.041 23.3876C77.1431 27.513 77.1431 32.9136 77.1431 43.7146V46.286C77.1431 57.087 77.1431 62.4876 75.041 66.6128C73.1921 70.2417 70.2417 73.1921 66.6128 75.041C62.4876 77.1431 57.087 77.1431 46.286 77.1431H43.7146C32.9136 77.1431 27.513 77.1431 23.3876 75.041C19.7588 73.1921 16.8084 70.2417 14.9594 66.6128C12.8574 62.4876 12.8574 57.087 12.8574 46.286V43.7146ZM43.7146 19.286H46.286C51.7927 19.286 55.5357 19.291 58.4292 19.5274C61.2479 19.7577 62.6891 20.175 63.6946 20.6873C66.1136 21.92 68.0805 23.8869 69.3131 26.306C69.8255 27.3114 70.243 28.7527 70.4732 31.5713C70.7094 34.4648 70.7146 38.2079 70.7146 43.7146V46.286C70.7146 51.7927 70.7094 55.5357 70.4732 58.4292C70.243 61.2479 69.8255 62.6891 69.3131 63.6946C68.0805 66.1136 66.1136 68.0805 63.6946 69.3131C62.6891 69.8255 61.2479 70.243 58.4292 70.4732C55.5357 70.7094 51.7927 70.7146 46.286 70.7146H43.7146C38.2079 70.7146 34.4648 70.7094 31.5713 70.4732C28.7527 70.243 27.3114 69.8255 26.306 69.3131C23.8869 68.0805 21.92 66.1136 20.6873 63.6946C20.175 62.6891 19.7577 61.2479 19.5274 58.4292C19.291 55.5357 19.286 51.7927 19.286 46.286V43.7146C19.286 38.2079 19.291 34.4648 19.5274 31.5713C19.7577 28.7527 20.175 27.3114 20.6873 26.306C21.92 23.8869 23.8869 21.92 26.306 20.6873C27.3114 20.175 28.7527 19.7577 31.5713 19.5274C34.4648 19.291 38.2079 19.286 43.7146 19.286Z" fill="white"/>
</g>
</g>
<defs>
<radialGradient id="paint0_radial_37_13" cx="0" cy="0" r="1" gradientUnits="userSpaceOnUse" gradientTransform="translate(32.1429 67.5) rotate(-55.3758) scale(82.0273)">
<stop stop-color="#B13589"/>
<stop offset="0.79309" stop-color="#C62F94"/>
<stop offset="1" stop-color="#8A3AC8"/>
</radialGradient>
<radialGradient id="paint1_radial_37_13" cx="0" cy="0" r="1" gradientUnits="userSpaceOnUse" gradientTransform="translate(28.9286 93.2143) rotate(-65.1363) scale(72.6242)">
<stop stop-color="#E0E8B7"/>
<stop offset="0.444662" stop-color="#FB8A2E"/>
<stop offset="0.71474" stop-color="#E2425C"/>
<stop offset="1" stop-color="#E2425C" stop-opacity="0"/>
</radialGradient>
<radialGradient id="paint2_radial_37_13" cx="0" cy="0" r="1" gradientUnits="userSpaceOnUse" gradientTransform="translate(-4.82143 3.21429) rotate(-8.1301) scale(125.006 26.7376)">
<stop offset="0.156701" stop-color="#406ADC"/>
<stop offset="0.467799" stop-color="#6A45BE"/>
<stop offset="1" stop-color="#6A45BE" stop-opacity="0"/>
</radialGradient>
</defs>
</svg>
