<svg width="45" height="33" viewBox="0 0 45 33" fill="none" xmlns="http://www.w3.org/2000/svg">
<path id="Vector" d="M4.15518 29.658C4.59949 29.8786 5.09815 30.0024 5.625 30.0024H39.375C39.9019 30.0024 40.4005 29.8786 40.8448 29.658L27.5504 16.8332L23.2152 20.4925C22.7998 20.8432 22.2002 20.8432 21.7848 20.4925L17.4496 16.8332L4.15518 29.658ZM2.57196 28.0196C2.58238 28.0087 2.59305 27.998 2.60397 27.9874L15.6987 15.3553L2.65984 4.34936C2.6314 4.32536 2.60442 4.30023 2.57888 4.27408C2.36806 4.72565 2.25 5.23141 2.25 5.76542V26.5431C2.25 27.0713 2.36548 27.5718 2.57196 28.0196ZM42.428 28.0196C42.6345 27.5718 42.75 27.0713 42.75 26.5431V5.76542C42.75 5.23141 42.6319 4.72565 42.4211 4.27409C42.3956 4.30023 42.3686 4.32536 42.3402 4.34936L29.3013 15.3553L42.396 27.9874C42.407 27.998 42.4176 28.0087 42.428 28.0196ZM40.825 2.64079C40.3857 2.42625 39.894 2.30617 39.375 2.30617H5.625C5.10598 2.30617 4.61433 2.42625 4.17504 2.64079L22.5 18.1087L40.825 2.64079ZM5.625 0H39.375C42.4816 0 45 2.58127 45 5.76542V26.5431C45 29.7273 42.4816 32.3085 39.375 32.3085H5.625C2.5184 32.3085 0 29.7273 0 26.5431V5.76542C0 2.58127 2.5184 0 5.625 0Z" fill="white"/>
</svg>
