<svg width="90" height="91" viewBox="0 0 90 91" fill="none" xmlns="http://www.w3.org/2000/svg">
<g id="&#240;&#159;&#166;&#134; icon &#34;discord&#34;">
<path id="Vector" d="M76.5 0H13.5C6.04416 0 0 6.10243 0 13.6302V77.2376C0 84.7654 6.04416 90.8678 13.5 90.8678H76.5C83.9558 90.8678 90 84.7654 90 77.2376V13.6302C90 6.10243 83.9558 0 76.5 0Z" fill="#7289DA"/>
<path id="Vector_2" d="M60.8203 69.5707L57.1289 65.1338C64.3359 63.1815 67.1484 58.2122 67.1484 58.2122C58.0078 66.9085 33.0469 67.2635 23.3789 58.2122C23.3789 58.2122 25.8398 62.8266 33.2227 65.1338L29.1797 69.5707C16.875 69.3932 12.1289 61.0518 12.1289 61.0518C12.1289 42.5943 20.2148 27.8638 20.2148 27.8638C28.4766 22.0071 36.0352 22.0071 36.0352 22.0071L36.5625 22.717C26.3672 25.5566 21.9727 30.171 21.9727 30.171C33.9258 22.0071 58.5352 22.717 68.2031 30.171C68.3789 29.9935 62.4023 25.2017 53.0859 22.717L53.9648 22.0071C53.9648 22.0071 61.5234 22.0071 69.7852 27.8638C69.7852 27.8638 77.8711 42.5943 77.8711 61.0518C77.8711 61.0518 73.125 69.3932 60.8203 69.5707Z" fill="white"/>
<path id="Vector_3" d="M34.4531 55.7273C37.6568 55.7273 40.2539 52.9462 40.2539 49.5156C40.2539 46.085 37.6568 43.304 34.4531 43.304C31.2494 43.304 28.6523 46.085 28.6523 49.5156C28.6523 52.9462 31.2494 55.7273 34.4531 55.7273Z" fill="#7289DA"/>
<path id="Vector_4" d="M54.8438 55.7273C58.0474 55.7273 60.6445 52.9462 60.6445 49.5156C60.6445 46.085 58.0474 43.304 54.8438 43.304C51.6401 43.304 49.043 46.085 49.043 49.5156C49.043 52.9462 51.6401 55.7273 54.8438 55.7273Z" fill="#7289DA"/>
</g>
</svg>
